<?xml version="1.0" encoding="UTF-8"?>
<svg width="411px" height="183px" viewBox="0 0 411 183" version="1.1" xmlns="http://www.w3.org/2000/svg" xmlns:xlink="http://www.w3.org/1999/xlink">
    <g id="Elements" stroke="none" stroke-width="1" fill="none" fill-rule="evenodd">
        <path d="M16.408,53 L16.408,33.288 L26.136,48.968 L32.792,48.968 L42.52,32.584 L42.648,53 L56.408,53 L56.28,8.2 L43.864,8.2 L29.656,32.072 L15.064,8.2 L2.648,8.2 L2.648,53 L16.408,53 Z M71.3768887,15.176 C74.022222,15.176 76.134222,14.4613333 77.7128887,13.032 C79.2915554,11.6026667 80.0808887,9.77866667 80.0808887,7.56 C80.0808887,5.46933333 79.2915554,3.76266667 77.7128887,2.44 C76.134222,1.11733333 74.022222,0.456 71.3768887,0.456 C68.774222,0.456 66.6728887,1.14933333 65.0728887,2.536 C63.4728887,3.92266667 62.6728887,5.68266667 62.6728887,7.816 C62.6728887,9.94933333 63.4728887,11.7093333 65.0728887,13.096 C66.6728887,14.4826667 68.774222,15.176 71.3768887,15.176 Z M78.6088887,53 L78.6088887,17.992 L64.1448887,17.992 L64.1448887,53 L78.6088887,53 Z M100.361777,53 L100.361777,5.512 L85.8977774,5.512 L85.8977774,53 L100.361777,53 Z M122.114666,53 L122.114666,5.512 L107.650666,5.512 L107.650666,53 L122.114666,53 Z M140.667555,53.64 C145.616888,53.64 148.923555,51.8906667 150.587555,48.392 L150.587555,48.392 L150.587555,53 L164.027555,53 L164.027555,34.184 C164.027555,28.4666667 162.406221,24.232 159.163555,21.48 C155.920888,18.728 151.227555,17.352 145.083555,17.352 C142.267555,17.352 139.440888,17.704 136.603555,18.408 C133.766221,19.112 131.344888,20.0826667 129.339555,21.32 L129.339555,21.32 L133.947555,30.856 C135.099555,30.0026667 136.486221,29.3306667 138.107555,28.84 C139.728888,28.3493333 141.328888,28.104 142.907555,28.104 C146.832888,28.104 149.030221,29.4693333 149.499555,32.2 L149.499555,32.2 L143.675555,32.2 C138.299555,32.2 134.288888,33.096 131.643555,34.888 C128.998221,36.68 127.675555,39.304 127.675555,42.76 C127.675555,44.808 128.176888,46.6533333 129.179555,48.296 C130.182221,49.9386667 131.654221,51.24 133.595555,52.2 C135.536888,53.16 137.894221,53.64 140.667555,53.64 Z M145.019555,44.936 C143.952888,44.936 143.110221,44.6693333 142.491555,44.136 C141.872888,43.6026667 141.563555,42.9306667 141.563555,42.12 C141.563555,40.1573333 143.035555,39.176 145.979555,39.176 L145.979555,39.176 L149.563555,39.176 L149.563555,41.608 C149.179555,42.7173333 148.582221,43.5493333 147.771555,44.104 C146.960888,44.6586667 146.043555,44.936 145.019555,44.936 Z M185.652444,53 L185.652444,37.448 C185.652444,32.4133333 188.12711,29.896 193.076444,29.896 C194.057777,29.896 195.124444,29.9813333 196.276443,30.152 L196.276443,30.152 L196.276443,17.352 C191.284444,17.352 187.508444,18.824 184.948443,21.768 L184.948443,21.768 L184.948443,17.992 L171.188443,17.992 L171.188443,53 L185.652444,53 Z M216.301332,53.64 C220.610666,53.64 223.810666,52.4666667 225.901332,50.12 L225.901332,50.12 L225.901332,53 L239.661332,53 L239.661332,5.512 L225.197332,5.512 L225.197332,20.36 C223.149332,18.3546667 220.183999,17.352 216.301332,17.352 C213.229332,17.352 210.402666,18.088 207.821332,19.56 C205.239999,21.032 203.191999,23.144 201.677332,25.896 C200.162666,28.648 199.405332,31.8373333 199.405332,35.464 C199.405332,39.0906667 200.162666,42.2906667 201.677332,45.064 C203.191999,47.8373333 205.239999,49.96 207.821332,51.432 C210.402666,52.904 213.229332,53.64 216.301332,53.64 Z M219.757332,42.376 C218.093332,42.376 216.727999,41.768 215.661332,40.552 C214.594666,39.336 214.061332,37.64 214.061332,35.464 C214.061332,33.288 214.594666,31.6026667 215.661332,30.408 C216.727999,29.2133333 218.093332,28.616 219.757332,28.616 C221.421332,28.616 222.786666,29.2133333 223.853332,30.408 C224.919999,31.6026667 225.453332,33.288 225.453332,35.464 C225.453332,37.64 224.919999,39.336 223.853332,40.552 C222.786666,41.768 221.421332,42.376 219.757332,42.376 Z M25.816,118.024 C30.168,118.024 34.0506667,117.256 37.464,115.72 C40.8773333,114.184 43.6933333,111.965333 45.912,109.064 L45.912,109.064 L36.376,100.552 C33.6026667,104.050667 30.3386667,105.8 26.584,105.8 C23.4266667,105.8 20.888,104.786667 18.968,102.76 C17.048,100.733333 16.088,98.0133333 16.088,94.6 C16.088,91.1866667 17.048,88.4666667 18.968,86.44 C20.888,84.4133333 23.4266667,83.4 26.584,83.4 C30.3386667,83.4 33.6026667,85.1493333 36.376,88.648 L36.376,88.648 L45.912,80.136 C43.6933333,77.2346667 40.8773333,75.016 37.464,73.48 C34.0506667,71.944 30.168,71.176 25.816,71.176 C21.08,71.176 16.8133333,72.168 13.016,74.152 C9.21866667,76.136 6.24266667,78.9093333 4.088,82.472 C1.93333333,86.0346667 0.856,90.0773333 0.856,94.6 C0.856,99.1226667 1.93333333,103.165333 4.088,106.728 C6.24266667,110.290667 9.21866667,113.064 13.016,115.048 C16.8133333,117.032 21.08,118.024 25.816,118.024 Z M68.2408887,117.64 C72.166222,117.64 75.6755554,116.861333 78.7688887,115.304 C81.862222,113.746667 84.2728887,111.592 86.0008887,108.84 C87.7288887,106.088 88.5928887,102.962667 88.5928887,99.464 C88.5928887,95.9653333 87.7288887,92.84 86.0008887,90.088 C84.2728887,87.336 81.862222,85.192 78.7688887,83.656 C75.6755554,82.12 72.166222,81.352 68.2408887,81.352 C64.358222,81.352 60.870222,82.12 57.7768887,83.656 C54.6835554,85.192 52.262222,87.336 50.5128887,90.088 C48.7635554,92.84 47.8888887,95.9653333 47.8888887,99.464 C47.8888887,102.962667 48.7635554,106.088 50.5128887,108.84 C52.262222,111.592 54.6835554,113.746667 57.7768887,115.304 C60.870222,116.861333 64.358222,117.64 68.2408887,117.64 Z M68.2408887,106.376 C66.5768887,106.376 65.2115554,105.768 64.1448887,104.552 C63.078222,103.336 62.5448887,101.64 62.5448887,99.464 C62.5448887,97.288 63.078222,95.6026667 64.1448887,94.408 C65.2115554,93.2133333 66.5768887,92.616 68.2408887,92.616 C69.9048887,92.616 71.270222,93.2133333 72.3368887,94.408 C73.4035554,95.6026667 73.9368887,97.288 73.9368887,99.464 C73.9368887,101.64 73.4035554,103.336 72.3368887,104.552 C71.270222,105.768 69.9048887,106.376 68.2408887,106.376 Z M108.489777,117 L108.489777,99.912 C108.489777,97.6933333 108.905777,96.072 109.737777,95.048 C110.569777,94.024 111.668444,93.512 113.033777,93.512 C115.636444,93.512 116.937777,95.5173333 116.937777,99.528 L116.937777,99.528 L116.937777,117 L131.401777,117 L131.401777,99.912 C131.401777,97.6933333 131.817777,96.072 132.649777,95.048 C133.481777,94.024 134.580444,93.512 135.945777,93.512 C138.548444,93.512 139.849777,95.5173333 139.849777,99.528 L139.849777,99.528 L139.849777,117 L154.313777,117 L154.313777,97.032 C154.313777,91.784 153.044444,87.8586667 150.505777,85.256 C147.967111,82.6533333 144.585777,81.352 140.361777,81.352 C137.972444,81.352 135.775111,81.8106667 133.769777,82.728 C131.764444,83.6453333 130.057777,84.9573333 128.649777,86.664 C127.455111,84.872 125.919111,83.5386667 124.041777,82.664 C122.164444,81.7893333 120.052444,81.352 117.705777,81.352 C113.695111,81.352 110.388444,82.6533333 107.785777,85.256 L107.785777,85.256 L107.785777,81.992 L94.0257774,81.992 L94.0257774,117 L108.489777,117 Z M175.938666,117 L175.938666,99.912 C175.938666,97.6933333 176.354666,96.072 177.186666,95.048 C178.018666,94.024 179.117333,93.512 180.482666,93.512 C183.085333,93.512 184.386666,95.5173333 184.386666,99.528 L184.386666,99.528 L184.386666,117 L198.850666,117 L198.850666,99.912 C198.850666,97.6933333 199.266666,96.072 200.098666,95.048 C200.930666,94.024 202.029333,93.512 203.394666,93.512 C205.997333,93.512 207.298666,95.5173333 207.298666,99.528 L207.298666,99.528 L207.298666,117 L221.762666,117 L221.762666,97.032 C221.762666,91.784 220.493333,87.8586667 217.954666,85.256 C215.415999,82.6533333 212.034666,81.352 207.810666,81.352 C205.421333,81.352 203.223999,81.8106667 201.218666,82.728 C199.213333,83.6453333 197.506666,84.9573333 196.098666,86.664 C194.903999,84.872 193.367999,83.5386667 191.490666,82.664 C189.613333,81.7893333 187.501333,81.352 185.154666,81.352 C181.143999,81.352 177.837333,82.6533333 175.234666,85.256 L175.234666,85.256 L175.234666,81.992 L161.474666,81.992 L161.474666,117 L175.938666,117 Z M243.515555,117.64 C245.435555,117.64 247.248888,117.309333 248.955555,116.648 C250.662221,115.986667 252.155555,114.994667 253.435555,113.672 L253.435555,113.672 L253.435555,117 L267.195555,117 L267.195555,81.992 L252.731555,81.992 L252.731555,98.44 C252.731555,100.872 252.262221,102.653333 251.323555,103.784 C250.384888,104.914667 249.211555,105.48 247.803555,105.48 C246.310221,105.48 245.179555,104.968 244.411555,103.944 C243.643555,102.92 243.259555,101.213333 243.259555,98.824 L243.259555,98.824 L243.259555,81.992 L228.795555,81.992 L228.795555,101.32 C228.795555,106.781333 230.139555,110.866667 232.827555,113.576 C235.515555,116.285333 239.078221,117.64 243.515555,117.64 Z M288.948443,117 L288.948443,100.552 C288.948443,98.12 289.449777,96.3386667 290.452444,95.208 C291.45511,94.0773333 292.76711,93.512 294.388443,93.512 C297.24711,93.512 298.676444,95.5173333 298.676444,99.528 L298.676444,99.528 L298.676444,117 L313.140443,117 L313.140443,97.032 C313.140443,91.784 311.828443,87.8586667 309.204444,85.256 C306.580444,82.6533333 303.113777,81.352 298.804443,81.352 C296.713777,81.352 294.772444,81.6933333 292.980444,82.376 C291.188444,83.0586667 289.609777,84.0826667 288.244443,85.448 L288.244443,85.448 L288.244443,81.992 L274.484443,81.992 L274.484443,117 L288.948443,117 Z M327.533332,79.176 C330.178666,79.176 332.290666,78.4613333 333.869332,77.032 C335.447999,75.6026667 336.237332,73.7786667 336.237332,71.56 C336.237332,69.4693333 335.447999,67.7626667 333.869332,66.44 C332.290666,65.1173333 330.178666,64.456 327.533332,64.456 C324.930666,64.456 322.829332,65.1493333 321.229332,66.536 C319.629332,67.9226667 318.829332,69.6826667 318.829332,71.816 C318.829332,73.9493333 319.629332,75.7093333 321.229332,77.096 C322.829332,78.4826667 324.930666,79.176 327.533332,79.176 Z M334.765332,117 L334.765332,81.992 L320.301332,81.992 L320.301332,117 L334.765332,117 Z M358.950221,117.64 C362.704888,117.64 365.670221,117.021333 367.846221,115.784 L367.846221,115.784 L364.390221,105.736 C363.451554,106.376 362.363554,106.696 361.126221,106.696 C360.230221,106.696 359.504888,106.397333 358.950221,105.8 C358.395554,105.202667 358.118221,104.370667 358.118221,103.304 L358.118221,103.304 L358.118221,94.472 L365.286221,94.472 L365.286221,83.912 L358.118221,83.912 L358.118221,74.12 L343.654221,74.12 L343.654221,83.912 L338.854221,83.912 L338.854221,94.472 L343.654221,94.472 L343.654221,103.432 C343.654221,108.168 344.976888,111.72 347.622221,114.088 C350.267554,116.456 354.043554,117.64 358.950221,117.64 Z M379.42311,130.056 C383.39111,130.056 386.740443,129.138667 389.47111,127.304 C392.201776,125.469333 394.484443,122.269333 396.31911,117.704 L396.31911,117.704 L410.71911,81.992 L397.02311,81.992 L389.66311,100.744 L382.43111,81.992 L367.58311,81.992 L382.30311,117.448 C381.492443,118.386667 380.297776,118.856 378.71911,118.856 C377.865776,118.856 376.980443,118.685333 376.06311,118.344 C375.145776,118.002667 374.324443,117.554667 373.59911,117 L373.59911,117 L368.79911,126.92 C369.95111,127.858667 371.51911,128.616 373.50311,129.192 C375.48711,129.768 377.460443,130.056 379.42311,130.056 Z M25.816,182.024 C30.168,182.024 34.0506667,181.256 37.464,179.72 C40.8773333,178.184 43.6933333,175.965333 45.912,173.064 L45.912,173.064 L36.376,164.552 C33.6026667,168.050667 30.3386667,169.8 26.584,169.8 C23.4266667,169.8 20.888,168.786667 18.968,166.76 C17.048,164.733333 16.088,162.013333 16.088,158.6 C16.088,155.186667 17.048,152.466667 18.968,150.44 C20.888,148.413333 23.4266667,147.4 26.584,147.4 C30.3386667,147.4 33.6026667,149.149333 36.376,152.648 L36.376,152.648 L45.912,144.136 C43.6933333,141.234667 40.8773333,139.016 37.464,137.48 C34.0506667,135.944 30.168,135.176 25.816,135.176 C21.08,135.176 16.8133333,136.168 13.016,138.152 C9.21866667,140.136 6.24266667,142.909333 4.088,146.472 C1.93333333,150.034667 0.856,154.077333 0.856,158.6 C0.856,163.122667 1.93333333,167.165333 4.088,170.728 C6.24266667,174.290667 9.21866667,177.064 13.016,179.048 C16.8133333,181.032 21.08,182.024 25.816,182.024 Z M65.1688887,181 L65.1688887,164.552 C65.1688887,162.12 65.670222,160.338667 66.6728887,159.208 C67.6755554,158.077333 68.9875554,157.512 70.6088887,157.512 C73.4675554,157.512 74.8968887,159.517333 74.8968887,163.528 L74.8968887,163.528 L74.8968887,181 L89.3608887,181 L89.3608887,161.032 C89.3608887,155.784 88.0488887,151.858667 85.4248887,149.256 C82.8008887,146.653333 79.334222,145.352 75.0248887,145.352 C71.142222,145.352 67.8568887,146.504 65.1688887,148.808 L65.1688887,148.808 L65.1688887,133.512 L50.7048887,133.512 L50.7048887,181 L65.1688887,181 Z M111.113777,181.64 C113.033777,181.64 114.847111,181.309333 116.553777,180.648 C118.260444,179.986667 119.753777,178.994667 121.033777,177.672 L121.033777,177.672 L121.033777,181 L134.793777,181 L134.793777,145.992 L120.329777,145.992 L120.329777,162.44 C120.329777,164.872 119.860444,166.653333 118.921777,167.784 C117.983111,168.914667 116.809777,169.48 115.401777,169.48 C113.908444,169.48 112.777777,168.968 112.009777,167.944 C111.241777,166.92 110.857777,165.213333 110.857777,162.824 L110.857777,162.824 L110.857777,145.992 L96.3937774,145.992 L96.3937774,165.32 C96.3937774,170.781333 97.7377774,174.866667 100.425777,177.576 C103.113777,180.285333 106.676444,181.64 111.113777,181.64 Z M156.546666,181 L156.546666,165.448 C156.546666,160.413333 159.021333,157.896 163.970666,157.896 C164.951999,157.896 166.018666,157.981333 167.170666,158.152 L167.170666,158.152 L167.170666,145.352 C162.178666,145.352 158.402666,146.824 155.842666,149.768 L155.842666,149.768 L155.842666,145.992 L142.082666,145.992 L142.082666,181 L156.546666,181 Z M190.651555,181.64 C194.918221,181.64 198.566221,180.722667 201.595555,178.888 C204.624888,177.053333 206.715555,174.514667 207.867555,171.272 L207.867555,171.272 L196.667555,165.768 C195.302221,168.84 193.275555,170.376 190.587555,170.376 C188.880888,170.376 187.462221,169.778667 186.331555,168.584 C185.200888,167.389333 184.635555,165.682667 184.635555,163.464 C184.635555,161.288 185.200888,159.602667 186.331555,158.408 C187.462221,157.213333 188.880888,156.616 190.587555,156.616 C193.275555,156.616 195.302221,158.152 196.667555,161.224 L196.667555,161.224 L207.867555,155.72 C206.715555,152.477333 204.624888,149.938667 201.595555,148.104 C198.566221,146.269333 194.918221,145.352 190.651555,145.352 C186.683555,145.352 183.131555,146.12 179.995555,147.656 C176.859555,149.192 174.406221,151.336 172.635555,154.088 C170.864888,156.84 169.979555,159.965333 169.979555,163.464 C169.979555,166.962667 170.864888,170.098667 172.635555,172.872 C174.406221,175.645333 176.859555,177.8 179.995555,179.336 C183.131555,180.872 186.683555,181.64 190.651555,181.64 Z M226.548444,181 L226.548444,164.552 C226.548444,162.12 227.049777,160.338667 228.052443,159.208 C229.05511,158.077333 230.36711,157.512 231.988444,157.512 C234.84711,157.512 236.276444,159.517333 236.276444,163.528 L236.276444,163.528 L236.276444,181 L250.740443,181 L250.740443,161.032 C250.740443,155.784 249.428443,151.858667 246.804443,149.256 C244.180443,146.653333 240.713777,145.352 236.404444,145.352 C232.521777,145.352 229.236444,146.504 226.548444,148.808 L226.548444,148.808 L226.548444,133.512 L212.084443,133.512 L212.084443,181 L226.548444,181 Z" id="MillardCommunityChurch" fill="#000000" fill-rule="nonzero"></path>
    </g>
</svg>